<?xml version="1.0" encoding="UTF-8"?>
<svg xmlns="http://www.w3.org/2000/svg" xmlns:xlink="http://www.w3.org/1999/xlink" version="1.1" viewBox="0.0 0.0 1002.1364829396325 864.7322834645669" fill="none" stroke="none" stroke-linecap="square" stroke-miterlimit="10">
   <g>
      <path stroke="#1b3a62" stroke-width="12.0" stroke-linejoin="round" stroke-linecap="butt" d="m7.5354333 431.38846l554.2003 0l0 -166.70868l318.77606 0" fill-rule="evenodd" />
      <path fill="#1b3a62" d="m847.53253 264.2152l0 0c0 -15.176941 12.303345 -27.4803 27.480347 -27.4803l0 0c7.288208 0 14.277954 2.8952332 19.431458 8.048798c5.1535645 5.1535645 8.048828 12.143295 8.048828 19.431503l0 0c0 15.176971 -12.303345 27.480316 -27.480286 27.480316l0 0c-15.177002 0 -27.480347 -12.303345 -27.480347 -27.480316z" fill-rule="evenodd" />
      <path fill="#1b3a62" d="m847.53253 499.14697l0 0c0 -15.176941 12.303345 -27.480316 27.480347 -27.480316l0 0c7.288208 0 14.277954 2.8952637 19.431458 8.048798c5.1535645 5.1535645 8.048828 12.143311 8.048828 19.431519l0 0c0 15.176941 -12.303345 27.480347 -27.480286 27.480347l0 0c-15.177002 0 -27.480347 -12.303406 -27.480347 -27.480347z" fill-rule="evenodd" />
      <path fill="#1b3a62" d="m847.53253 734.07874l0 0c0 -15.176941 12.303345 -27.480286 27.480347 -27.480286l0 0c7.288208 0 14.277954 2.8952026 19.431458 8.048767c5.1535645 5.1535645 8.048828 12.143311 8.048828 19.431519l0 0c0 15.176941 -12.303345 27.480347 -27.480286 27.480347l0 0c-15.177002 0 -27.480347 -12.303406 -27.480347 -27.480347z" fill-rule="evenodd" />
      <path stroke="#1b3a62" stroke-width="12.0" stroke-linejoin="round" stroke-linecap="butt" d="m7.5354333 495.93964l870.2362 0" fill-rule="evenodd" />
      <path stroke="#1b3a62" stroke-width="12.0" stroke-linejoin="round" stroke-linecap="butt" d="m5.2152233 557.7402l553.7726 0l0 177.7638l316.0227 0" fill-rule="evenodd" />
      <path stroke="#1b3a62" stroke-width="8.0" stroke-linejoin="round" stroke-linecap="butt" d="m14.214221 191.39084l223.95386 0l0 -75.87377l151.78874 0" fill-rule="evenodd" />
      <path fill="#1b3a62" d="m375.74896 115.27687l0 0c0 -6.9100647 5.2953796 -12.511787 11.827545 -12.511787l0 0c3.1368408 0 6.145233 1.3182068 8.363312 3.6646194c2.2181091 2.3464203 3.464203 5.528839 3.464203 8.847168l0 0c0 6.9100723 -5.295349 12.511787 -11.827515 12.511787l0 0c-6.5321655 0 -11.827545 -5.601715 -11.827545 -12.511787z" fill-rule="evenodd" />
      <path fill="#1b3a62" d="m375.74896 222.2413l0 0c0 -6.9100647 5.2953796 -12.51178 11.827545 -12.51178l0 0c3.1368408 0 6.145233 1.3181915 8.363312 3.6646118c2.2181091 2.3464203 3.464203 5.528839 3.464203 8.847168l0 0c0 6.9100647 -5.295349 12.511795 -11.827515 12.511795l0 0c-6.5321655 0 -11.827545 -5.6017303 -11.827545 -12.511795z" fill-rule="evenodd" />
      <path fill="#1b3a62" d="m375.74896 329.20572l0 0c0 -6.9100647 5.2953796 -12.51178 11.827545 -12.51178l0 0c3.1368408 0 6.145233 1.3182068 8.363312 3.6646118c2.2181091 2.3464355 3.464203 5.528839 3.464203 8.847168l0 0c0 6.910095 -5.295349 12.51181 -11.827515 12.51181l0 0c-6.5321655 0 -11.827545 -5.601715 -11.827545 -12.51181z" fill-rule="evenodd" />
      <path stroke="#1b3a62" stroke-width="8.0" stroke-linejoin="round" stroke-linecap="butt" d="m14.214221 220.78099l374.54965 0" fill-rule="evenodd" />
      <path stroke="#1b3a62" stroke-width="8.0" stroke-linejoin="round" stroke-linecap="butt" d="m13.215603 248.91878l225.86865 0l0 80.95018l148.46411 0" fill-rule="evenodd" />
   </g>
</svg>
